<svg width="56" height="48" viewBox="0 0 56 48" fill="none" xmlns="http://www.w3.org/2000/svg">
<path d="M14 14C12.9391 14 11.9217 13.5786 11.1716 12.8284C10.4214 12.0783 10 11.0609 10 10C10 8.93913 10.4214 7.92172 11.1716 7.17157C11.9217 6.42143 12.9391 6 14 6C15.0609 6 16.0783 6.42143 16.8284 7.17157C17.5786 7.92172 18 8.93913 18 10M14 14C15.0609 14 16.0783 13.5786 16.8284 12.8284C17.5786 12.0783 18 11.0609 18 10M14 14V34M18 10H38M38 10C38 11.0609 38.4214 12.0783 39.1716 12.8284C39.9217 13.5786 40.9391 14 42 14M38 10C38 8.93913 38.4214 7.92172 39.1716 7.17157C39.9217 6.42143 40.9391 6 42 6C43.0609 6 44.0783 6.42143 44.8284 7.17157C45.5786 7.92172 46 8.93913 46 10C46 11.0609 45.5786 12.0783 44.8284 12.8284C44.0783 13.5786 43.0609 14 42 14M42 14V34M18 38C18 39.0609 17.5786 40.0783 16.8284 40.8284C16.0783 41.5786 15.0609 42 14 42C12.9391 42 11.9217 41.5786 11.1716 40.8284C10.4214 40.0783 10 39.0609 10 38C10 36.9391 10.4214 35.9217 11.1716 35.1716C11.9217 34.4214 12.9391 34 14 34M18 38C18 36.9391 17.5786 35.9217 16.8284 35.1716C16.0783 34.4214 15.0609 34 14 34M18 38H38M38 38C38 39.0609 38.4214 40.0783 39.1716 40.8284C39.9217 41.5786 40.9391 42 42 42C43.0609 42 44.0783 41.5786 44.8284 40.8284C45.5786 40.0783 46 39.0609 46 38C46 36.9391 45.5786 35.9217 44.8284 35.1716C44.0783 34.4214 43.0609 34 42 34M38 38C38 36.9391 38.4214 35.9217 39.1716 35.1716C39.9217 34.4214 40.9391 34 42 34" stroke="url(#paint0_linear_1278_153)" stroke-width="2.66667" stroke-linecap="round" stroke-linejoin="round"/>
<defs>
<linearGradient id="paint0_linear_1278_153" x1="28" y1="6" x2="28" y2="42" gradientUnits="userSpaceOnUse">
<stop stop-color="#3094F2"/>
<stop offset="1" stop-color="#1472C9"/>
</linearGradient>
</defs>
</svg>
