<svg width="183" height="44" viewBox="0 0 183 44" fill="none" xmlns="http://www.w3.org/2000/svg">
<rect x="3" y="3.35925" width="39" height="36.2815" rx="11.0777" fill="#EAF5FF"/>
<path fill-rule="evenodd" clip-rule="evenodd" d="M18.0863 24.0834L19.7113 26.8975L22.743 26.8985L25.8917 26.8975L27.4075 24.2726L28.4288 22.5042H34.615L32.0466 26.9512L28.9848 32.2556H22.743H16.6192L13.4471 26.7619L10.3853 21.4585L13.4471 16.1551L14.7923 13.8267L16.5675 10.7502L21.6944 10.8361L25.6342 10.798L28.697 10.7444L30.4196 13.7282L33.2376 18.6103L22.903 24.6072L20.0518 19.8374L25.7795 16.4068H19.488L19.4314 16.5043L18.0873 18.8336L16.5714 21.4585L18.0863 24.0834Z" fill="url(#paint0_linear_1260_470)"/>
<path d="M53.5 31.0061V11H65.9171V13.7748H56.7187V19.5047H64.7517V22.1407H56.7187V28.2313H65.9171V31.0061H53.5Z" fill="#EAF5FF"/>
<path d="M75.2053 31.3529C73.8827 31.3529 72.6572 31.0569 71.5288 30.465C70.4096 29.873 69.5171 28.9851 68.8511 27.8012C68.1852 26.6173 67.8522 25.1791 67.8522 23.4865C67.8522 21.8216 68.1667 20.388 68.7956 19.1856C69.4338 17.9832 70.3079 17.0629 71.4178 16.4247C72.5277 15.7865 73.7856 15.4674 75.1915 15.4674C76.4679 15.4674 77.5917 15.7356 78.5628 16.2721C79.5432 16.7993 80.3155 17.5253 80.8798 18.4503C81.4532 19.3659 81.8047 20.3972 81.9342 21.5441H78.868C78.7756 20.8874 78.5767 20.3001 78.2715 19.7821C77.9662 19.2642 77.5547 18.8526 77.0367 18.5474C76.528 18.2421 75.9222 18.0895 75.2192 18.0895C74.3775 18.0895 73.6422 18.3115 73.0133 18.7555C72.3843 19.1994 71.8987 19.8238 71.5565 20.6284C71.2143 21.4239 71.0432 22.3581 71.0432 23.431C71.0432 24.5316 71.2189 25.4797 71.5704 26.2751C71.9311 27.0705 72.426 27.681 73.0549 28.1064C73.6838 28.5227 74.396 28.7308 75.1915 28.7308C75.8759 28.7308 76.4771 28.5828 76.9951 28.2868C77.513 27.9908 77.9246 27.5977 78.2298 27.1075C78.5443 26.6081 78.7571 26.0531 78.868 25.4427H81.9342C81.7954 26.5341 81.444 27.5284 80.8798 28.4255C80.3248 29.3135 79.5617 30.0257 78.5906 30.5621C77.6286 31.0893 76.5002 31.3529 75.2053 31.3529Z" fill="#EAF5FF"/>
<path d="M88.6419 31.2836C87.6522 31.2836 86.792 31.0986 86.0614 30.7286C85.3399 30.3586 84.785 29.836 84.3965 29.1609C84.0173 28.4857 83.8277 27.6995 83.8277 26.8023C83.8277 25.4797 84.2439 24.4622 85.0763 23.7501C85.9087 23.0286 87.0834 22.5523 88.6003 22.3211L92.0826 21.7938C92.4433 21.7476 92.7208 21.6782 92.915 21.5857C93.1093 21.4932 93.2526 21.373 93.3451 21.225C93.4376 21.077 93.4839 20.8874 93.4839 20.6562C93.4839 20.1475 93.359 19.7035 93.1093 19.3243C92.8595 18.9358 92.4988 18.6399 92.0271 18.4364C91.5646 18.2329 91.0097 18.1312 90.3622 18.1312C89.7518 18.1312 89.22 18.2375 88.7668 18.4503C88.3135 18.6537 87.9528 18.9451 87.6846 19.3243C87.4256 19.7035 87.273 20.1521 87.2268 20.6701H84.1468C84.23 19.6064 84.5352 18.6861 85.0624 17.9092C85.5896 17.123 86.3065 16.5218 87.2129 16.1056C88.1286 15.6894 89.183 15.4813 90.3761 15.4813C91.671 15.4813 92.7809 15.6894 93.7058 16.1056C94.64 16.5218 95.3522 17.123 95.8424 17.9092C96.3326 18.6861 96.5777 19.6018 96.5777 20.6562V31.0061H93.4839V28.8279H93.4422C92.9983 29.6048 92.3647 30.2106 91.5415 30.6454C90.7183 31.0708 89.7518 31.2836 88.6419 31.2836ZM89.5298 28.7169C90.3622 28.7169 91.0791 28.518 91.6803 28.1203C92.2815 27.7134 92.73 27.1723 93.026 26.4971C93.3312 25.8126 93.4839 25.0727 93.4839 24.2773V23.5836C93.3544 23.6853 93.174 23.7732 92.9428 23.8472C92.7115 23.9212 92.4387 23.9859 92.1242 24.0414L89.0304 24.527C88.4107 24.6195 87.9112 24.8322 87.532 25.1652C87.1528 25.4982 86.9632 25.9745 86.9632 26.5942C86.9632 27.0382 87.0649 27.4174 87.2684 27.7319C87.4719 28.0463 87.7678 28.2914 88.1563 28.4672C88.5448 28.6337 89.0026 28.7169 89.5298 28.7169Z" fill="#EAF5FF"/>
<path d="M105.436 31.3391C104.215 31.3391 103.119 31.0292 102.148 30.4095C101.177 29.7806 100.414 28.8695 99.8586 27.6764C99.3129 26.4832 99.0401 25.0681 99.0401 23.431C99.0401 21.8401 99.3037 20.4435 99.8309 19.2411C100.367 18.0294 101.121 17.0999 102.092 16.4524C103.073 15.805 104.196 15.4813 105.464 15.4813C106.185 15.4813 106.856 15.583 107.475 15.7865C108.104 15.99 108.664 16.2813 109.154 16.6605C109.654 17.0397 110.07 17.4883 110.403 18.0063H110.43V11H113.621V31.0061H110.43V28.814H110.403C110.042 29.369 109.603 29.8361 109.085 30.2153C108.567 30.5852 107.993 30.8627 107.364 31.0477C106.745 31.2419 106.102 31.3391 105.436 31.3391ZM106.393 28.5504C107.207 28.5504 107.919 28.3423 108.53 27.9261C109.149 27.5099 109.626 26.9179 109.959 26.1502C110.301 25.3733 110.472 24.4669 110.472 23.431C110.472 22.4135 110.306 21.5164 109.973 20.7394C109.64 19.9625 109.163 19.3613 108.544 18.9358C107.933 18.5104 107.212 18.2976 106.379 18.2976C105.575 18.2976 104.858 18.5057 104.229 18.922C103.609 19.3289 103.128 19.9163 102.786 20.6839C102.444 21.4516 102.273 22.3627 102.273 23.4171C102.273 24.4715 102.448 25.3872 102.8 26.1641C103.151 26.9318 103.637 27.5237 104.257 27.94C104.886 28.3469 105.598 28.5504 106.393 28.5504Z" fill="#EAF5FF"/>
<path d="M123.603 31.3391C122.188 31.3391 120.912 31.0107 119.774 30.354C118.646 29.6973 117.763 28.7678 117.124 27.5654C116.486 26.363 116.167 24.9848 116.167 23.431C116.167 21.8678 116.482 20.4851 117.11 19.2827C117.739 18.0803 118.623 17.1461 119.76 16.4802C120.898 15.8142 122.184 15.4813 123.617 15.4813C125.06 15.4813 126.346 15.8142 127.474 16.4802C128.603 17.1369 129.477 18.0664 130.096 19.2688C130.725 20.4712 131.04 21.8586 131.04 23.431C131.04 24.9941 130.721 26.3768 130.082 27.5792C129.454 28.7724 128.57 29.6973 127.433 30.354C126.304 31.0107 125.028 31.3391 123.603 31.3391ZM123.603 28.6753C124.417 28.6753 125.143 28.4672 125.782 28.0509C126.42 27.6347 126.919 27.0335 127.28 26.2474C127.641 25.4519 127.821 24.5131 127.821 23.431C127.821 22.3396 127.641 21.4008 127.28 20.6146C126.929 19.8191 126.434 19.2133 125.795 18.7971C125.157 18.3716 124.427 18.1589 123.603 18.1589C122.78 18.1589 122.05 18.3716 121.411 18.7971C120.782 19.2133 120.288 19.8191 119.927 20.6146C119.566 21.4008 119.386 22.3396 119.386 23.431C119.386 24.5131 119.566 25.4473 119.927 26.2335C120.297 27.0197 120.796 27.6255 121.425 28.0509C122.063 28.4672 122.789 28.6753 123.603 28.6753Z" fill="#EAF5FF"/>
<path d="M140.273 31.3529C138.95 31.3529 137.724 31.0569 136.596 30.465C135.477 29.873 134.584 28.9851 133.918 27.8012C133.252 26.6173 132.919 25.1791 132.919 23.4865C132.919 21.8216 133.234 20.388 133.863 19.1856C134.501 17.9832 135.375 17.0629 136.485 16.4247C137.595 15.7865 138.853 15.4674 140.259 15.4674C141.535 15.4674 142.659 15.7356 143.63 16.2721C144.61 16.7993 145.383 17.5253 145.947 18.4503C146.52 19.3659 146.872 20.3972 147.001 21.5441H143.935C143.843 20.8874 143.644 20.3001 143.339 19.7821C143.033 19.2642 142.622 18.8526 142.104 18.5474C141.595 18.2421 140.989 18.0895 140.286 18.0895C139.445 18.0895 138.709 18.3115 138.08 18.7555C137.452 19.1994 136.966 19.8238 136.624 20.6284C136.282 21.4239 136.11 22.3581 136.11 23.431C136.11 24.5316 136.286 25.4797 136.638 26.2751C136.998 27.0705 137.493 27.681 138.122 28.1064C138.751 28.5227 139.463 28.7308 140.259 28.7308C140.943 28.7308 141.544 28.5828 142.062 28.2868C142.58 27.9908 142.992 27.5977 143.297 27.1075C143.612 26.6081 143.824 26.0531 143.935 25.4427H147.001C146.863 26.5341 146.511 27.5284 145.947 28.4255C145.392 29.3135 144.629 30.0257 143.658 30.5621C142.696 31.0893 141.567 31.3529 140.273 31.3529Z" fill="#EAF5FF"/>
<path d="M155.242 31.0061L162.387 11H166.494L173.639 31.0061H170.059L168.436 26.1364H160.445L158.807 31.0061H155.242ZM161.305 23.5281H167.562L165.189 16.4524C164.94 15.7125 164.704 14.9309 164.482 14.1077H164.399C164.167 14.9309 163.927 15.7125 163.677 16.4524L161.305 23.5281Z" fill="#A1D1FF"/>
<path d="M176.143 31.0061V11H179.5V31.0061H176.143Z" fill="#A1D1FF"/>
<defs>
<linearGradient id="paint0_linear_1260_470" x1="22.5001" y1="10.7444" x2="22.5001" y2="32.2556" gradientUnits="userSpaceOnUse">
<stop stop-color="#3094F2"/>
<stop offset="1" stop-color="#1472C9"/>
</linearGradient>
</defs>
</svg>
