<svg width="44" height="44" viewBox="0 0 44 44" fill="none" xmlns="http://www.w3.org/2000/svg">
<rect x="2.5" y="4.31824" width="39" height="36.2815" rx="11.0777" fill="url(#paint0_linear_1229_232)"/>
<path fill-rule="evenodd" clip-rule="evenodd" d="M17.5863 25.0424L19.2113 27.8565L22.243 27.8575L25.3917 27.8565L26.9075 25.2316L27.9288 23.4632H34.115L31.5466 27.9102L28.4848 33.2145H22.243H16.1192L12.9471 27.7209L9.88525 22.4175L12.9471 17.1141L14.2923 14.7857L16.0675 11.7092L21.1944 11.7951L25.1342 11.757L28.197 11.7034L29.9196 14.6872L32.7376 19.5692L22.403 25.5662L19.5518 20.7963L25.2795 17.3657H18.988L18.9314 17.4633L17.5873 19.7926L16.0714 22.4175L17.5863 25.0424Z" fill="white"/>
<defs>
<linearGradient id="paint0_linear_1229_232" x1="22" y1="4.31824" x2="22" y2="40.5997" gradientUnits="userSpaceOnUse">
<stop stop-color="#3094F2"/>
<stop offset="1" stop-color="#1472C9"/>
</linearGradient>
</defs>
</svg>
