<svg width="62" height="56" viewBox="0 0 62 56" fill="none" xmlns="http://www.w3.org/2000/svg">
<g clip-path="url(#clip0_1229_312)">
<path d="M42.3333 11C42.3333 12.5029 42.9304 13.9442 43.9931 15.0069C45.0558 16.0696 46.4971 16.6667 48 16.6667M42.3333 11C42.3333 9.49711 42.9304 8.05577 43.9931 6.99306C45.0558 5.93036 46.4971 5.33333 48 5.33333M42.3333 11H5.5M48 16.6667C49.5029 16.6667 50.9442 16.0696 52.0069 15.0069C53.0696 13.9442 53.6667 12.5029 53.6667 11M48 16.6667V39.3333M53.6667 11C53.6667 9.49711 53.0696 8.05577 52.0069 6.99306C50.9442 5.93036 49.5029 5.33333 48 5.33333M53.6667 11H56.5M48 5.33333V2.5M8.33333 28C8.33333 29.5029 8.93036 30.9442 9.99306 32.0069C11.0558 33.0696 12.4971 33.6667 14 33.6667M8.33333 28C8.33333 26.4971 8.93036 25.0558 9.99306 23.9931C11.0558 22.9304 12.4971 22.3333 14 22.3333M8.33333 28H5.5M14 33.6667C15.5029 33.6667 16.9442 33.0696 18.0069 32.0069C19.0696 30.9442 19.6667 29.5029 19.6667 28M14 33.6667V39.3333M19.6667 28C19.6667 26.4971 19.0696 25.0558 18.0069 23.9931C16.9442 22.9304 15.5029 22.3333 14 22.3333M19.6667 28H56.5M14 22.3333V2.5M8.33333 45C8.33333 46.5029 8.93036 47.9442 9.99306 49.0069C11.0558 50.0696 12.4971 50.6667 14 50.6667M8.33333 45C8.33333 43.4971 8.93036 42.0558 9.99306 40.9931C11.0558 39.9304 12.4971 39.3333 14 39.3333M8.33333 45H5.5M14 50.6667C15.5029 50.6667 16.9442 50.0696 18.0069 49.0069C19.0696 47.9442 19.6667 46.5029 19.6667 45M14 50.6667V53.5M19.6667 45C19.6667 43.4971 19.0696 42.0558 18.0069 40.9931C16.9442 39.9304 15.5029 39.3333 14 39.3333M19.6667 45H42.3333M42.3333 45C42.3333 46.5029 42.9304 47.9442 43.9931 49.0069C45.0558 50.0696 46.4971 50.6667 48 50.6667M42.3333 45C42.3333 43.4971 42.9304 42.0558 43.9931 40.9931C45.0558 39.9304 46.4971 39.3333 48 39.3333M48 50.6667C49.5029 50.6667 50.9442 50.0696 52.0069 49.0069C53.0696 47.9442 53.6667 46.5029 53.6667 45M48 50.6667V53.5M53.6667 45C53.6667 43.4971 53.0696 42.0558 52.0069 40.9931C50.9442 39.9304 49.5029 39.3333 48 39.3333M53.6667 45H56.5M31 2.5V53.5" stroke="url(#paint0_linear_1229_312)" stroke-width="4.25" stroke-linecap="round" stroke-linejoin="round"/>
</g>
<defs>
<linearGradient id="paint0_linear_1229_312" x1="31" y1="2.5" x2="31" y2="53.5" gradientUnits="userSpaceOnUse">
<stop stop-color="#3094F2"/>
<stop offset="1" stop-color="#1472C9"/>
</linearGradient>
<clipPath id="clip0_1229_312">
<rect width="62" height="56" fill="white"/>
</clipPath>
</defs>
</svg>
