<svg width="56" height="48" viewBox="0 0 56 48" fill="none" xmlns="http://www.w3.org/2000/svg">
<g clip-path="url(#clip0_1278_155)">
<path d="M8.4375 25.75C8.4375 28.2862 8.93703 30.7975 9.90758 33.1406C10.8781 35.4837 12.3007 37.6127 14.094 39.406C15.8873 41.1993 18.0163 42.6219 20.3594 43.5924C22.7025 44.563 25.2138 45.0625 27.75 45.0625C30.2862 45.0625 32.7975 44.563 35.1406 43.5924C37.4837 42.6219 39.6127 41.1993 41.406 39.406C43.1993 37.6127 44.6219 35.4837 45.5924 33.1406C46.563 30.7975 47.0625 28.2862 47.0625 25.75M8.4375 25.75C8.4375 23.2138 8.93703 20.7025 9.90758 18.3594C10.8781 16.0163 12.3007 13.8873 14.094 12.094C15.8873 10.3007 18.0163 8.87812 20.3594 7.90758C22.7025 6.93703 25.2138 6.4375 27.75 6.4375C30.2862 6.4375 32.7975 6.93703 35.1406 7.90758C37.4837 8.87812 39.6127 10.3007 41.406 12.094C43.1993 13.8873 44.6219 16.0163 45.5924 18.3594C46.563 20.7025 47.0625 23.2138 47.0625 25.75M8.4375 25.75H47.0625" stroke="url(#paint0_linear_1278_155)" stroke-width="2.86111" stroke-linecap="round" stroke-linejoin="round"/>
</g>
<defs>
<linearGradient id="paint0_linear_1278_155" x1="27.75" y1="6.4375" x2="27.75" y2="45.0625" gradientUnits="userSpaceOnUse">
<stop stop-color="#3094F2"/>
<stop offset="1" stop-color="#1472C9"/>
</linearGradient>
<clipPath id="clip0_1278_155">
<rect width="56" height="48" fill="white"/>
</clipPath>
</defs>
</svg>
