<svg width="62" height="56" viewBox="0 0 62 56" fill="none" xmlns="http://www.w3.org/2000/svg">
<g clip-path="url(#clip0_1229_43)">
<path d="M58.1124 21.6101C58.1124 19.4373 57.2493 17.3535 55.7129 15.8171C54.1765 14.2807 52.0927 13.4175 49.9199 13.4175H43.8929C42.9665 10.1578 40.9653 7.30698 38.2143 5.32803C35.4633 3.34908 32.1241 2.35823 28.739 2.51638C25.3538 2.67453 22.1215 3.97241 19.5671 6.19923C17.0126 8.42606 15.2859 11.4511 14.6674 14.783M45.8232 51.6492H22.611C19.066 51.6483 15.5911 50.6617 12.5746 48.7995C9.55802 46.9374 7.11872 44.2731 5.52923 41.1044C3.93974 37.9357 3.26269 34.3874 3.57373 30.8561C3.88477 27.3247 5.17165 23.9495 7.29056 21.1074C9.40947 18.2653 12.2769 16.0685 15.5725 14.7623C18.8681 13.4561 22.462 13.0921 25.9526 13.7109C29.4432 14.3296 32.693 15.9069 35.3388 18.2663C37.9846 20.6257 39.9221 23.6744 40.935 27.0716H45.8232C47.437 27.0716 49.035 27.3895 50.5259 28.0071C52.0169 28.6246 53.3716 29.5298 54.5127 30.6709C55.6538 31.8121 56.559 33.1668 57.1766 34.6577C57.7942 36.1487 58.112 37.7466 58.112 39.3604C58.112 40.9742 57.7942 42.5722 57.1766 44.0632C56.559 45.5541 55.6538 46.9088 54.5127 48.0499C53.3716 49.191 52.0169 50.0962 50.5259 50.7138C49.035 51.3314 47.437 51.6492 45.8232 51.6492Z" stroke="url(#paint0_linear_1229_43)" stroke-width="4.09627" stroke-linecap="round" stroke-linejoin="round"/>
</g>
<defs>
<linearGradient id="paint0_linear_1229_43" x1="30.8062" y1="2.5" x2="30.8062" y2="51.6492" gradientUnits="userSpaceOnUse">
<stop stop-color="#3094F2"/>
<stop offset="1" stop-color="#1472C9"/>
</linearGradient>
<clipPath id="clip0_1229_43">
<rect width="62" height="56" fill="white"/>
</clipPath>
</defs>
</svg>
