<svg width="49" height="48" viewBox="0 0 49 48" fill="none" xmlns="http://www.w3.org/2000/svg">
<g clip-path="url(#clip0_1229_303)">
<path d="M16.8333 19.9167V5.625L12.75 9.70833M12.75 32.1667C12.75 31.0837 13.1802 30.0451 13.946 29.2793C14.7118 28.5135 15.7504 28.0833 16.8333 28.0833C17.9163 28.0833 18.9549 28.5135 19.7207 29.2793C20.4865 30.0451 20.9167 31.0837 20.9167 32.1667C20.9167 33.3733 19.6896 35.1475 18.875 36.25L12.75 42.375H20.9167M31.125 28.0833C31.125 28.8909 31.3645 29.6804 31.8132 30.3519C32.2618 31.0234 32.8996 31.5468 33.6457 31.8558C34.3918 32.1649 35.2129 32.2458 36.005 32.0882C36.797 31.9307 37.5246 31.5418 38.0957 30.9707C38.6667 30.3996 39.0556 29.672 39.2132 28.88C39.3708 28.0879 39.2899 27.2668 38.9808 26.5207C38.6718 25.7746 38.1484 25.1369 37.4769 24.6882C36.8054 24.2395 36.0159 24 35.2083 24C36.0159 24 36.8054 23.7605 37.4769 23.3118C38.1484 22.8632 38.6718 22.2254 38.9808 21.4793C39.2899 20.7332 39.3708 19.9121 39.2132 19.1201C39.0556 18.328 38.6667 17.6004 38.0957 17.0293C37.5246 16.4583 36.797 16.0694 36.005 15.9118C35.2129 15.7542 34.3918 15.8351 33.6457 16.1442C32.8996 16.4532 32.2618 16.9766 31.8132 17.6481C31.3645 18.3196 31.125 19.1091 31.125 19.9167M13.7708 19.9167H19.8958" stroke="url(#paint0_linear_1229_303)" stroke-width="3.0625" stroke-linecap="round" stroke-linejoin="round"/>
</g>
<defs>
<linearGradient id="paint0_linear_1229_303" x1="26.0208" y1="5.625" x2="26.0208" y2="42.375" gradientUnits="userSpaceOnUse">
<stop stop-color="#3094F2"/>
<stop offset="1" stop-color="#1472C9"/>
</linearGradient>
<clipPath id="clip0_1229_303">
<rect width="49" height="48" fill="white"/>
</clipPath>
</defs>
</svg>
