<svg width="332" height="176" viewBox="0 0 332 176" fill="none" xmlns="http://www.w3.org/2000/svg">
<g clip-path="url(#clip0_1229_346)">
<path d="M332 0.5H0V175.5H332V0.5Z" fill="#1F252F"/>
<path d="M26.4078 38.7158C25.4118 38.7158 24.5238 38.5058 23.7438 38.0858C22.9758 37.6658 22.3698 37.0898 21.9258 36.3578C21.4938 35.6258 21.2778 34.7918 21.2778 33.8558V25.0898H23.4018V33.7658C23.4018 34.3538 23.5278 34.8758 23.7798 35.3318C24.0438 35.7878 24.3978 36.1418 24.8418 36.3938C25.2978 36.6458 25.8198 36.7718 26.4078 36.7718C27.0078 36.7718 27.5298 36.6458 27.9738 36.3938C28.4298 36.1418 28.7838 35.7878 29.0358 35.3318C29.2998 34.8758 29.4318 34.3538 29.4318 33.7658V25.0898H31.5378V33.8558C31.5378 34.7918 31.3218 35.6258 30.8898 36.3578C30.4578 37.0898 29.8518 37.6658 29.0718 38.0858C28.3038 38.5058 27.4158 38.7158 26.4078 38.7158ZM37.6023 38.7158C36.6063 38.7158 35.7303 38.4698 34.9743 37.9778C34.2303 37.4858 33.7083 36.8258 33.4083 35.9978L34.9743 35.2598C35.2383 35.8118 35.5983 36.2498 36.0543 36.5738C36.5223 36.8978 37.0383 37.0598 37.6023 37.0598C38.0823 37.0598 38.4723 36.9518 38.7723 36.7358C39.0723 36.5198 39.2223 36.2258 39.2223 35.8538C39.2223 35.6138 39.1563 35.4218 39.0243 35.2778C38.8923 35.1218 38.7243 34.9958 38.5203 34.8998C38.3283 34.8038 38.1303 34.7318 37.9263 34.6838L36.3963 34.2518C35.5563 34.0118 34.9263 33.6518 34.5063 33.1718C34.0983 32.6798 33.8943 32.1098 33.8943 31.4618C33.8943 30.8738 34.0443 30.3638 34.3443 29.9318C34.6443 29.4878 35.0583 29.1458 35.5863 28.9058C36.1143 28.6658 36.7083 28.5458 37.3683 28.5458C38.2563 28.5458 39.0483 28.7678 39.7443 29.2118C40.4403 29.6438 40.9323 30.2498 41.2203 31.0298L39.6543 31.7678C39.4623 31.2998 39.1563 30.9278 38.7363 30.6518C38.3283 30.3758 37.8663 30.2378 37.3503 30.2378C36.9063 30.2378 36.5523 30.3458 36.2883 30.5618C36.0243 30.7658 35.8923 31.0358 35.8923 31.3718C35.8923 31.5998 35.9523 31.7918 36.0723 31.9478C36.1923 32.0918 36.3483 32.2118 36.5403 32.3078C36.7323 32.3918 36.9303 32.4638 37.1343 32.5238L38.7183 32.9918C39.5223 33.2198 40.1403 33.5798 40.5723 34.0718C41.0043 34.5518 41.2203 35.1278 41.2203 35.7998C41.2203 36.3758 41.0643 36.8858 40.7523 37.3298C40.4523 37.7618 40.0323 38.1038 39.4923 38.3558C38.9523 38.5958 38.3223 38.7158 37.6023 38.7158ZM47.7852 38.7158C46.8132 38.7158 45.9492 38.4938 45.1932 38.0498C44.4492 37.5938 43.8672 36.9818 43.4472 36.2138C43.0272 35.4338 42.8172 34.5638 42.8172 33.6038C42.8172 32.6198 43.0272 31.7498 43.4472 30.9938C43.8792 30.2378 44.4552 29.6438 45.1752 29.2118C45.8952 28.7678 46.7112 28.5458 47.6232 28.5458C48.3552 28.5458 49.0092 28.6718 49.5852 28.9238C50.1612 29.1758 50.6472 29.5238 51.0432 29.9678C51.4392 30.3998 51.7392 30.8978 51.9432 31.4618C52.1592 32.0258 52.2672 32.6258 52.2672 33.2618C52.2672 33.4178 52.2612 33.5798 52.2492 33.7478C52.2372 33.9158 52.2132 34.0718 52.1772 34.2158H44.4192V32.5958H51.0252L50.0532 33.3338C50.1732 32.7458 50.1312 32.2238 49.9272 31.7678C49.7352 31.2998 49.4352 30.9338 49.0272 30.6698C48.6312 30.3938 48.1632 30.2558 47.6232 30.2558C47.0832 30.2558 46.6032 30.3938 46.1832 30.6698C45.7632 30.9338 45.4392 31.3178 45.2112 31.8218C44.9832 32.3138 44.8932 32.9138 44.9412 33.6218C44.8812 34.2818 44.9712 34.8578 45.2112 35.3498C45.4632 35.8418 45.8112 36.2258 46.2552 36.5018C46.7112 36.7778 47.2272 36.9158 47.8032 36.9158C48.3912 36.9158 48.8892 36.7838 49.2972 36.5198C49.7172 36.2558 50.0472 35.9138 50.2872 35.4938L51.9432 36.3038C51.7512 36.7598 51.4512 37.1738 51.0432 37.5458C50.6472 37.9058 50.1672 38.1938 49.6032 38.4098C49.0512 38.6138 48.4452 38.7158 47.7852 38.7158ZM54.2523 38.4998V28.7618H56.1963V30.7238L56.0163 30.4358C56.2323 29.7998 56.5803 29.3438 57.0603 29.0678C57.5403 28.7798 58.1163 28.6358 58.7883 28.6358H59.3823V30.4898H58.5363C57.8643 30.4898 57.3183 30.6998 56.8983 31.1198C56.4903 31.5278 56.2863 32.1158 56.2863 32.8838V38.4998H54.2523ZM66.8362 38.7158C66.1762 38.7158 65.5942 38.6018 65.0902 38.3738C64.5982 38.1338 64.2142 37.8098 63.9382 37.4018C63.6622 36.9818 63.5242 36.4898 63.5242 35.9258C63.5242 35.3978 63.6382 34.9238 63.8662 34.5038C64.1062 34.0838 64.4722 33.7298 64.9642 33.4418C65.4562 33.1538 66.0742 32.9498 66.8182 32.8298L70.2022 32.2718V33.8738L67.2142 34.3958C66.6742 34.4918 66.2782 34.6658 66.0262 34.9178C65.7742 35.1578 65.6482 35.4698 65.6482 35.8538C65.6482 36.2258 65.7862 36.5318 66.0622 36.7718C66.3502 36.9998 66.7162 37.1138 67.1602 37.1138C67.7122 37.1138 68.1922 36.9938 68.6002 36.7538C69.0202 36.5138 69.3442 36.1958 69.5722 35.7998C69.8002 35.3918 69.9142 34.9418 69.9142 34.4498V31.9478C69.9142 31.4678 69.7342 31.0778 69.3742 30.7778C69.0262 30.4658 68.5582 30.3098 67.9702 30.3098C67.4302 30.3098 66.9562 30.4538 66.5482 30.7418C66.1522 31.0178 65.8582 31.3778 65.6662 31.8218L63.9742 30.9758C64.1542 30.4958 64.4482 30.0758 64.8562 29.7158C65.2642 29.3438 65.7382 29.0558 66.2782 28.8518C66.8302 28.6478 67.4122 28.5458 68.0242 28.5458C68.7922 28.5458 69.4702 28.6898 70.0582 28.9778C70.6582 29.2658 71.1202 29.6678 71.4442 30.1838C71.7802 30.6878 71.9482 31.2758 71.9482 31.9478V38.4998H70.0042V36.7358L70.4182 36.7898C70.1902 37.1858 69.8962 37.5278 69.5362 37.8158C69.1882 38.1038 68.7862 38.3258 68.3302 38.4818C67.8862 38.6378 67.3882 38.7158 66.8362 38.7158ZM78.9525 38.7158C77.9805 38.7158 77.1165 38.4938 76.3605 38.0498C75.6165 37.5938 75.0225 36.9818 74.5785 36.2138C74.1465 35.4458 73.9305 34.5758 73.9305 33.6038C73.9305 32.6438 74.1465 31.7798 74.5785 31.0118C75.0105 30.2438 75.6045 29.6438 76.3605 29.2118C77.1165 28.7678 77.9805 28.5458 78.9525 28.5458C79.6125 28.5458 80.2305 28.6658 80.8065 28.9058C81.3825 29.1338 81.8805 29.4518 82.3005 29.8598C82.7325 30.2678 83.0505 30.7418 83.2545 31.2818L81.4725 32.1098C81.2685 31.6058 80.9385 31.2038 80.4825 30.9038C80.0385 30.5918 79.5285 30.4358 78.9525 30.4358C78.4005 30.4358 77.9025 30.5738 77.4585 30.8498C77.0265 31.1138 76.6845 31.4918 76.4325 31.9838C76.1805 32.4638 76.0545 33.0098 76.0545 33.6218C76.0545 34.2338 76.1805 34.7858 76.4325 35.2778C76.6845 35.7578 77.0265 36.1358 77.4585 36.4118C77.9025 36.6878 78.4005 36.8258 78.9525 36.8258C79.5405 36.8258 80.0505 36.6758 80.4825 36.3758C80.9265 36.0638 81.2565 35.6498 81.4725 35.1338L83.2545 35.9798C83.0625 36.4958 82.7505 36.9638 82.3185 37.3838C81.8985 37.7918 81.4005 38.1158 80.8245 38.3558C80.2485 38.5958 79.6245 38.7158 78.9525 38.7158ZM89.4545 38.6078C88.4345 38.6078 87.6425 38.3198 87.0785 37.7438C86.5145 37.1678 86.2325 36.3578 86.2325 35.3138V30.5978H84.5225V28.7618H84.7925C85.2485 28.7618 85.6025 28.6298 85.8545 28.3658C86.1065 28.1018 86.2325 27.7418 86.2325 27.2858V26.5298H88.2665V28.7618H90.4805V30.5978H88.2665V35.2238C88.2665 35.5598 88.3205 35.8478 88.4285 36.0878C88.5365 36.3158 88.7105 36.4958 88.9505 36.6278C89.1905 36.7478 89.5025 36.8078 89.8865 36.8078C89.9825 36.8078 90.0905 36.8018 90.2105 36.7898C90.3305 36.7778 90.4445 36.7658 90.5525 36.7538V38.4998C90.3845 38.5238 90.1985 38.5478 89.9945 38.5718C89.7905 38.5958 89.6105 38.6078 89.4545 38.6078ZM92.5374 38.4998V28.7618H94.5714V38.4998H92.5374ZM92.5374 27.4298V25.0898H94.5714V27.4298H92.5374ZM99.7755 38.4998L95.9595 28.7618H98.1735L101.108 36.6998H100.298L103.232 28.7618H105.464L101.63 38.4998H99.7755ZM106.846 38.4998V28.7618H108.88V38.4998H106.846ZM106.846 27.4298V25.0898H108.88V27.4298H106.846ZM115.47 38.6078C114.45 38.6078 113.658 38.3198 113.094 37.7438C112.53 37.1678 112.248 36.3578 112.248 35.3138V30.5978H110.538V28.7618H110.808C111.264 28.7618 111.618 28.6298 111.87 28.3658C112.122 28.1018 112.248 27.7418 112.248 27.2858V26.5298H114.282V28.7618H116.496V30.5978H114.282V35.2238C114.282 35.5598 114.336 35.8478 114.444 36.0878C114.552 36.3158 114.726 36.4958 114.966 36.6278C115.206 36.7478 115.518 36.8078 115.902 36.8078C115.998 36.8078 116.106 36.8018 116.226 36.7898C116.346 36.7778 116.46 36.7658 116.568 36.7538V38.4998C116.4 38.5238 116.214 38.5478 116.01 38.5718C115.806 38.5958 115.626 38.6078 115.47 38.6078ZM119.417 42.4778C119.177 42.4778 118.937 42.4538 118.697 42.4058C118.469 42.3698 118.259 42.3098 118.067 42.2258V40.4798C118.211 40.5158 118.385 40.5458 118.589 40.5698C118.793 40.6058 118.991 40.6238 119.183 40.6238C119.747 40.6238 120.161 40.4978 120.425 40.2458C120.701 40.0058 120.947 39.6278 121.163 39.1118L121.811 37.6358L121.775 39.3458L117.563 28.7618H119.741L122.855 36.8798H122.117L125.213 28.7618H127.409L123.107 39.5618C122.879 40.1378 122.591 40.6418 122.243 41.0738C121.907 41.5178 121.505 41.8598 121.037 42.0998C120.581 42.3518 120.041 42.4778 119.417 42.4778Z" fill="#FCFCFC"/>
<path d="M302.5 23.5C301.672 23.5 301 22.8284 301 22C301 21.1716 301.672 20.5 302.5 20.5C303.328 20.5 304 21.1716 304 22C304 22.8284 303.328 23.5 302.5 23.5Z" fill="#FCFCFC" fill-opacity="0.4"/>
<path d="M302.5 29.5C301.672 29.5 301 28.8284 301 28C301 27.1716 301.672 26.5 302.5 26.5C303.328 26.5 304 27.1716 304 28C304 28.8284 303.328 29.5 302.5 29.5Z" fill="#FCFCFC" fill-opacity="0.4"/>
<path d="M302.5 35.5C301.672 35.5 301 34.8284 301 34C301 33.1716 301.672 32.5 302.5 32.5C303.328 32.5 304 33.1716 304 34C304 34.8284 303.328 35.5 302.5 35.5Z" fill="#FCFCFC" fill-opacity="0.4"/>
<path d="M36.5312 135.617C35.8906 135.617 35.3438 135.441 34.8906 135.09C34.4375 134.738 34.0918 134.23 33.8535 133.566C33.6152 132.898 33.4961 132.09 33.4961 131.141C33.4961 130.195 33.6152 129.389 33.8535 128.721C34.0957 128.049 34.4434 127.537 34.8965 127.186C35.3496 126.83 35.8945 126.652 36.5312 126.652C37.168 126.652 37.7129 126.83 38.166 127.186C38.6191 127.537 38.9648 128.049 39.2031 128.721C39.4453 129.389 39.5664 130.195 39.5664 131.141C39.5664 132.09 39.4473 132.898 39.209 133.566C38.9707 134.23 38.625 134.738 38.1719 135.09C37.7227 135.441 37.1758 135.617 36.5312 135.617ZM36.5312 134.691C36.9648 134.691 37.332 134.553 37.6328 134.275C37.9336 133.994 38.1621 133.588 38.3184 133.057C38.4785 132.525 38.5586 131.887 38.5586 131.141C38.5586 130.391 38.4785 129.75 38.3184 129.219C38.1621 128.688 37.9336 128.281 37.6328 128C37.332 127.719 36.9648 127.578 36.5312 127.578C35.8828 127.578 35.3828 127.891 35.0312 128.516C34.6797 129.141 34.5039 130.016 34.5039 131.141C34.5039 131.887 34.582 132.525 34.7383 133.057C34.8984 133.588 35.1289 133.994 35.4297 134.275C35.7344 134.553 36.1016 134.691 36.5312 134.691Z" fill="#FCFCFC" fill-opacity="0.6"/>
<path d="M51.9941 154.652C51.3691 154.652 50.8281 154.553 50.3711 154.354C49.9141 154.15 49.5547 153.869 49.293 153.51C49.0352 153.146 48.8887 152.727 48.8535 152.25H49.9434C49.9746 152.578 50.0859 152.85 50.2773 153.064C50.4727 153.279 50.7207 153.439 51.0215 153.545C51.3223 153.65 51.6465 153.703 51.9941 153.703C52.3965 153.703 52.7578 153.637 53.0781 153.504C53.4023 153.371 53.6582 153.186 53.8457 152.947C54.0332 152.709 54.127 152.43 54.127 152.109C54.127 151.82 54.0449 151.586 53.8809 151.406C53.7168 151.227 53.502 151.08 53.2363 150.967C52.9746 150.854 52.6895 150.754 52.3809 150.668L51.3145 150.363C50.6309 150.168 50.0898 149.889 49.6914 149.525C49.2969 149.158 49.0996 148.68 49.0996 148.09C49.0996 147.602 49.2305 147.176 49.4922 146.812C49.7578 146.445 50.1152 146.16 50.5645 145.957C51.0176 145.754 51.5215 145.652 52.0762 145.652C52.6387 145.652 53.1387 145.754 53.5762 145.957C54.0137 146.156 54.3613 146.43 54.6191 146.777C54.877 147.121 55.0137 147.512 55.0293 147.949H53.998C53.9473 147.52 53.7402 147.186 53.377 146.947C53.0176 146.709 52.5723 146.59 52.041 146.59C51.6582 146.59 51.3223 146.652 51.0332 146.777C50.7441 146.902 50.5195 147.074 50.3594 147.293C50.1992 147.512 50.1191 147.762 50.1191 148.043C50.1191 148.352 50.2148 148.602 50.4062 148.793C50.5977 148.98 50.8242 149.127 51.0859 149.232C51.3516 149.338 51.5918 149.422 51.8066 149.484L52.6855 149.73C52.9121 149.793 53.1641 149.877 53.4414 149.982C53.7227 150.088 53.9922 150.23 54.25 150.41C54.5117 150.59 54.7266 150.82 54.8945 151.102C55.0625 151.379 55.1465 151.723 55.1465 152.133C55.1465 152.602 55.0234 153.027 54.7773 153.41C54.5312 153.789 54.1738 154.092 53.7051 154.318C53.2363 154.541 52.666 154.652 51.9941 154.652Z" fill="#FCFCFC" fill-opacity="0.6"/>
<path d="M89.6934 145.77H90.959L93.9238 153.012H94.0293L96.9941 145.77H98.3008V154.5H97.2637V147.867H97.1816L94.4336 154.5H93.4844L90.7715 147.867H90.6895V154.5H89.6934V145.77Z" fill="#FCFCFC" fill-opacity="0.6"/>
<path d="M132.225 146.707V145.77H138.775V146.707H136.033V154.5H134.979V146.707H132.225Z" fill="#FCFCFC" fill-opacity="0.6"/>
<path d="M174.941 154.5L172.562 145.77H173.629L175.457 152.883H175.539L177.402 145.77H178.598L180.449 152.883H180.543L182.359 145.77H183.438L181.047 154.5H179.957L178.035 147.551H177.965L176.043 154.5H174.941Z" fill="#FCFCFC" fill-opacity="0.6"/>
<path d="M217.225 146.707V145.77H223.775V146.707H221.033V154.5H219.979V146.707H217.225Z" fill="#FCFCFC" fill-opacity="0.6"/>
<path d="M258.033 154.5V145.77H263.271V146.707H259.088V149.754H262.873V150.691H259.088V154.5H258.033Z" fill="#FCFCFC" fill-opacity="0.6"/>
<path d="M301.494 154.652C300.869 154.652 300.328 154.553 299.871 154.354C299.414 154.15 299.055 153.869 298.793 153.51C298.535 153.146 298.389 152.727 298.354 152.25H299.443C299.475 152.578 299.586 152.85 299.777 153.064C299.973 153.279 300.221 153.439 300.521 153.545C300.822 153.65 301.146 153.703 301.494 153.703C301.896 153.703 302.258 153.637 302.578 153.504C302.902 153.371 303.158 153.186 303.346 152.947C303.533 152.709 303.627 152.43 303.627 152.109C303.627 151.82 303.545 151.586 303.381 151.406C303.217 151.227 303.002 151.08 302.736 150.967C302.475 150.854 302.189 150.754 301.881 150.668L300.814 150.363C300.131 150.168 299.59 149.889 299.191 149.525C298.797 149.158 298.6 148.68 298.6 148.09C298.6 147.602 298.73 147.176 298.992 146.812C299.258 146.445 299.615 146.16 300.064 145.957C300.518 145.754 301.021 145.652 301.576 145.652C302.139 145.652 302.639 145.754 303.076 145.957C303.514 146.156 303.861 146.43 304.119 146.777C304.377 147.121 304.514 147.512 304.529 147.949H303.498C303.447 147.52 303.24 147.186 302.877 146.947C302.518 146.709 302.072 146.59 301.541 146.59C301.158 146.59 300.822 146.652 300.533 146.777C300.244 146.902 300.02 147.074 299.859 147.293C299.699 147.512 299.619 147.762 299.619 148.043C299.619 148.352 299.715 148.602 299.906 148.793C300.098 148.98 300.324 149.127 300.586 149.232C300.852 149.338 301.092 149.422 301.307 149.484L302.186 149.73C302.412 149.793 302.664 149.877 302.941 149.982C303.223 150.088 303.492 150.23 303.75 150.41C304.012 150.59 304.227 150.82 304.395 151.102C304.562 151.379 304.646 151.723 304.646 152.133C304.646 152.602 304.523 153.027 304.277 153.41C304.031 153.789 303.674 154.092 303.205 154.318C302.736 154.541 302.166 154.652 301.494 154.652Z" fill="#FCFCFC" fill-opacity="0.6"/>
<path d="M29.7461 103.617C29.2461 103.617 28.7949 103.52 28.3926 103.324C27.9941 103.125 27.6738 102.852 27.4316 102.504C27.1895 102.156 27.0586 101.762 27.0391 101.32H28.0586C28.0977 101.711 28.2754 102.035 28.5918 102.293C28.9121 102.551 29.2969 102.68 29.7461 102.68C30.1055 102.68 30.4238 102.596 30.7012 102.428C30.9785 102.26 31.1973 102.029 31.3574 101.736C31.5176 101.443 31.5977 101.109 31.5977 100.734C31.5977 100.355 31.5137 100.016 31.3457 99.7148C31.1816 99.4141 30.9551 99.1777 30.666 99.0059C30.377 98.8301 30.0469 98.7422 29.6758 98.7422C29.4062 98.7422 29.1309 98.7852 28.8496 98.8711C28.5723 98.9531 28.3438 99.0586 28.1641 99.1875L27.168 99.0703L27.6953 94.7695H32.2305V95.707H28.5859L28.2812 98.2852H28.3281C28.5078 98.1406 28.7324 98.0234 29.002 97.9336C29.2715 97.8398 29.5547 97.793 29.8516 97.793C30.3867 97.793 30.8633 97.9199 31.2812 98.1738C31.6992 98.4277 32.0273 98.7754 32.2656 99.2168C32.5078 99.6543 32.6289 100.156 32.6289 100.723C32.6289 101.277 32.5039 101.773 32.2539 102.211C32.0039 102.648 31.6621 102.992 31.2285 103.242C30.7949 103.492 30.3008 103.617 29.7461 103.617ZM36.5312 103.617C35.8906 103.617 35.3438 103.441 34.8906 103.09C34.4375 102.738 34.0918 102.23 33.8535 101.566C33.6152 100.898 33.4961 100.09 33.4961 99.1406C33.4961 98.1953 33.6152 97.3887 33.8535 96.7207C34.0957 96.0488 34.4434 95.5371 34.8965 95.1855C35.3496 94.8301 35.8945 94.6523 36.5312 94.6523C37.168 94.6523 37.7129 94.8301 38.166 95.1855C38.6191 95.5371 38.9648 96.0488 39.2031 96.7207C39.4453 97.3887 39.5664 98.1953 39.5664 99.1406C39.5664 100.09 39.4473 100.898 39.209 101.566C38.9707 102.23 38.625 102.738 38.1719 103.09C37.7227 103.441 37.1758 103.617 36.5312 103.617ZM36.5312 102.691C36.9648 102.691 37.332 102.553 37.6328 102.275C37.9336 101.994 38.1621 101.588 38.3184 101.057C38.4785 100.525 38.5586 99.8867 38.5586 99.1406C38.5586 98.3906 38.4785 97.75 38.3184 97.2188C38.1621 96.6875 37.9336 96.2812 37.6328 96C37.332 95.7188 36.9648 95.5781 36.5312 95.5781C35.8828 95.5781 35.3828 95.8906 35.0312 96.5156C34.6797 97.1406 34.5039 98.0156 34.5039 99.1406C34.5039 99.8867 34.582 100.525 34.7383 101.057C34.8984 101.588 35.1289 101.994 35.4297 102.275C35.7344 102.553 36.1016 102.691 36.5312 102.691Z" fill="#FCFCFC" fill-opacity="0.6"/>
<path d="M25.3516 62.2695V71H24.3203V63.3828H24.2617L22.1406 64.8008V63.7227L24.3203 62.2695H25.3516ZM29.5938 71.1172C28.9531 71.1172 28.4062 70.9414 27.9531 70.5898C27.5 70.2383 27.1543 69.7305 26.916 69.0664C26.6777 68.3984 26.5586 67.5898 26.5586 66.6406C26.5586 65.6953 26.6777 64.8887 26.916 64.2207C27.1582 63.5488 27.5059 63.0371 27.959 62.6855C28.4121 62.3301 28.957 62.1523 29.5938 62.1523C30.2305 62.1523 30.7754 62.3301 31.2285 62.6855C31.6816 63.0371 32.0273 63.5488 32.2656 64.2207C32.5078 64.8887 32.6289 65.6953 32.6289 66.6406C32.6289 67.5898 32.5098 68.3984 32.2715 69.0664C32.0332 69.7305 31.6875 70.2383 31.2344 70.5898C30.7852 70.9414 30.2383 71.1172 29.5938 71.1172ZM29.5938 70.1914C30.0273 70.1914 30.3945 70.0527 30.6953 69.7754C30.9961 69.4941 31.2246 69.0879 31.3809 68.5566C31.541 68.0254 31.6211 67.3867 31.6211 66.6406C31.6211 65.8906 31.541 65.25 31.3809 64.7188C31.2246 64.1875 30.9961 63.7812 30.6953 63.5C30.3945 63.2188 30.0273 63.0781 29.5938 63.0781C28.9453 63.0781 28.4453 63.3906 28.0938 64.0156C27.7422 64.6406 27.5664 65.5156 27.5664 66.6406C27.5664 67.3867 27.6445 68.0254 27.8008 68.5566C27.9609 69.0879 28.1914 69.4941 28.4922 69.7754C28.7969 70.0527 29.1641 70.1914 29.5938 70.1914ZM36.5312 71.1172C35.8906 71.1172 35.3438 70.9414 34.8906 70.5898C34.4375 70.2383 34.0918 69.7305 33.8535 69.0664C33.6152 68.3984 33.4961 67.5898 33.4961 66.6406C33.4961 65.6953 33.6152 64.8887 33.8535 64.2207C34.0957 63.5488 34.4434 63.0371 34.8965 62.6855C35.3496 62.3301 35.8945 62.1523 36.5312 62.1523C37.168 62.1523 37.7129 62.3301 38.166 62.6855C38.6191 63.0371 38.9648 63.5488 39.2031 64.2207C39.4453 64.8887 39.5664 65.6953 39.5664 66.6406C39.5664 67.5898 39.4473 68.3984 39.209 69.0664C38.9707 69.7305 38.625 70.2383 38.1719 70.5898C37.7227 70.9414 37.1758 71.1172 36.5312 71.1172ZM36.5312 70.1914C36.9648 70.1914 37.332 70.0527 37.6328 69.7754C37.9336 69.4941 38.1621 69.0879 38.3184 68.5566C38.4785 68.0254 38.5586 67.3867 38.5586 66.6406C38.5586 65.8906 38.4785 65.25 38.3184 64.7188C38.1621 64.1875 37.9336 63.7812 37.6328 63.5C37.332 63.2188 36.9648 63.0781 36.5312 63.0781C35.8828 63.0781 35.3828 63.3906 35.0312 64.0156C34.6797 64.6406 34.5039 65.5156 34.5039 66.6406C34.5039 67.3867 34.582 68.0254 34.7383 68.5566C34.8984 69.0879 35.1289 69.4941 35.4297 69.7754C35.7344 70.0527 36.1016 70.1914 36.5312 70.1914Z" fill="#FCFCFC" fill-opacity="0.6"/>
<path d="M58 112.75L100.5 130.25L129 85.25H152.5L163 100.75H188.5L209 109.75L228.5 93.25L265 100.75L308.5 62.25" stroke="#864FFE" stroke-width="2"/>
<path d="M124.5 59V133.327" stroke="#864FFE" stroke-linecap="round" stroke-dasharray="8 8"/>
<g filter="url(#filter0_d_1229_346)">
<path d="M125 70.394C127.209 70.394 129 68.619 129 66.4294C129 64.2399 127.209 62.4648 125 62.4648C122.791 62.4648 121 64.2399 121 66.4294C121 68.619 122.791 70.394 125 70.394Z" fill="#864FFE"/>
<mask id="mask0_1229_346" style="mask-type:luminance" maskUnits="userSpaceOnUse" x="121" y="62" width="8" height="9">
<path d="M125 70.394C127.209 70.394 129 68.619 129 66.4294C129 64.2399 127.209 62.4648 125 62.4648C122.791 62.4648 121 64.2399 121 66.4294C121 68.619 122.791 70.394 125 70.394Z" fill="white"/>
</mask>
<g mask="url(#mask0_1229_346)">
<path d="M129 66.4294H123C123 65.2552 123.946 64.394 125 64.394V70.394V76.394C130.472 76.394 135 71.9829 135 66.4294H129ZM125 70.394V64.394C126.054 64.394 127 65.2552 127 66.4294H121H115C115 71.9829 119.528 76.394 125 76.394V70.394ZM121 66.4294H127C127 67.6037 126.054 68.4648 125 68.4648V62.4648V56.4648C119.528 56.4648 115 60.876 115 66.4294H121ZM125 62.4648V68.4648C123.946 68.4648 123 67.6037 123 66.4294H129H135C135 60.876 130.472 56.4648 125 56.4648V62.4648Z" fill="#1F252F"/>
</g>
</g>
</g>
<defs>
<filter id="filter0_d_1229_346" x="111" y="56.4648" width="28" height="27.9292" filterUnits="userSpaceOnUse" color-interpolation-filters="sRGB">
<feFlood flood-opacity="0" result="BackgroundImageFix"/>
<feColorMatrix in="SourceAlpha" type="matrix" values="0 0 0 0 0 0 0 0 0 0 0 0 0 0 0 0 0 0 127 0" result="hardAlpha"/>
<feOffset dy="4"/>
<feGaussianBlur stdDeviation="5"/>
<feComposite in2="hardAlpha" operator="out"/>
<feColorMatrix type="matrix" values="0 0 0 0 0 0 0 0 0 0 0 0 0 0 0 0 0 0 0.12 0"/>
<feBlend mode="normal" in2="BackgroundImageFix" result="effect1_dropShadow_1229_346"/>
<feBlend mode="normal" in="SourceGraphic" in2="effect1_dropShadow_1229_346" result="shape"/>
</filter>
<clipPath id="clip0_1229_346">
<rect width="332" height="176" fill="white"/>
</clipPath>
</defs>
</svg>
